<svg width="19" height="18" viewBox="0 0 19 18" fill="none" xmlns="http://www.w3.org/2000/svg">
<path d="M15.2543 10.9902C15.0194 11.2179 14.9114 11.5471 14.965 11.8701L15.7714 16.3331C15.8394 16.7114 15.6798 17.0942 15.3632 17.3128C15.0529 17.5396 14.6402 17.5668 14.3018 17.3854L10.2842 15.2899C10.1445 15.2156 9.98937 15.1757 9.83062 15.1711H9.58479C9.49952 15.1838 9.41607 15.211 9.33987 15.2528L5.3213 17.3582C5.12264 17.458 4.89767 17.4934 4.67724 17.458C4.14022 17.3564 3.78191 16.8448 3.8699 16.305L4.67724 11.842C4.73076 11.5163 4.62281 11.1852 4.38787 10.9539L1.11224 7.77895C0.838284 7.51316 0.743035 7.11402 0.868219 6.75389C0.989774 6.39467 1.30001 6.13251 1.67465 6.07355L6.18307 5.41951C6.52596 5.38413 6.82713 5.1755 6.98134 4.86707L8.96795 0.794077C9.01512 0.703365 9.07589 0.619909 9.14937 0.549153L9.23101 0.485655C9.27365 0.438484 9.32263 0.399478 9.37706 0.367728L9.47594 0.331443L9.63015 0.267944H10.012C10.3531 0.303322 10.6534 0.507426 10.8103 0.81222L12.8232 4.86707C12.9684 5.1637 13.2505 5.36962 13.5761 5.41951L18.0846 6.07355C18.4656 6.12798 18.784 6.39104 18.91 6.75389C19.0289 7.11765 18.9264 7.51679 18.647 7.77895L15.2543 10.9902Z" fill="#DE8F32"/>
</svg>
